<svg xmlns="http://www.w3.org/2000/svg" width="128" height="128" viewBox="0 0 33.867 33.867" xmlns:v="https://vecta.io/nano"><path d="M9.816 25.462q-3.921 0-6.454-2.545Q.829 20.359.829 16.583h0q0-3.788 2.521-6.346Q5.884 7.68 9.816 7.68q3.921 0 6.466 2.57 2.545 2.558 2.545 6.321h0q0 3.752-2.558 6.321-2.545 2.57-6.454 2.57zm0-4.174q2.015 0 3.318-1.339 1.315-1.339 1.315-3.378h0q0-2.039-1.315-3.378-1.303-1.351-3.318-1.351-2.027 0-3.318 1.351-1.291 1.339-1.291 3.378h0q0 2.051 1.279 3.39 1.291 1.327 3.33 1.327zm16.648 4.174q-2.883 0-4.813-1.918-1.918-1.918-1.918-4.705h0q0-2.775 1.918-4.693 1.93-1.918 4.813-1.918 2.871 0 4.801 1.918 1.93 1.918 1.93 4.693h0q0 2.787-1.93 4.705-1.93 1.918-4.801 1.918zm0-3.583q1.243 0 2.135-.869.893-.869.893-2.159h0q0-1.315-.893-2.184-.893-.869-2.135-.869-1.243 0-2.135.869-.881.869-.881 2.171h0q0 1.303.881 2.171.893.869 2.135.869z" fill="#0000ff"/></svg>